{"title":"Evil.Things.2010.DVDRip.XviD.AC3-playXDPAK TEAMm.avi","uid":6705915,"size":564445352,"categoryP":"video","categoryS":"movies","magnet":"?xt=urn:btih:e05461f7efe744cab42755f0b6e5d6be8c10ffcf&amp;dn=Evil.Things.2010.DVDRip.XviD.AC3-playXDPAK+TEAMm.avi&amp;tr=udp%3A%2F%2Ftracker.openbittorrent.com%3A80&amp;tr=udp%3A%2F%2Fopen.demonii.com%3A1337&amp;tr=udp%3A%2F%2Ftracker.coppersurfer.tk%3A6969&amp;tr=udp%3A%2F%2Fexodus.desync.com%3A6969","seeders":0,"leechers":0,"uploader":"DrSeeder","files":-1,"time":1317159413,"description":"pppppppppppppppp       TTTTTTTTTTTTTTTTTTTTTTTTTTTTT\npppppppp       pp      TTTTTTTTTTTTTTTTTTTTTTTTTTTTT    \npppppppp        pp     TT        TTTTTT           TT     \npppppppp         pp    TT        TTTTTT           TT \npppppppp         pp    T         TTTTTT            T\npppppppp         pp              TTTTTT\npppppppp         pp              TTTTTT\npppppppp        pp               TTTTTT\npppppppp       pp                TTTTTT\npppppppppppppppp                 TTTTTT\npppppppp                         TTTTTT\npppppppp                         TTTTTT\npppppppp                         TTTTTT\npppppppp                         TTTTTT \npppppppp        p     k   k ii   TTTTTT   EEEEEE     AA     M       M\npppppppp       p p    k  k  ii   TTTTTT   E          AA     MM     MM\npppppppp       p p    k k   ii   TTTTTT   E         AAAA    M M   M M\npppppppp       p p    kk    ii   TTTTTT   EEEEEE   A   A    M  M M  M\npppppppp      p   p   k k   ii   TTTTTT   E       AA   AA   M   M   M\npppppppp     pppppp   k  k  ii   TTTTTT   E       AAAAAAA   M       M \npppppppp     p     p  k   k ii   TTTTTT   EEEEEE A      AA  M       M\n..............................................................................\n                       DrSeeder &lt;a class=&quot;__cf_email__&quot; href=&quot;/cdn-cgi/l/email-protection&quot; data-cfemail=&quot;87fde6efeee3b1b2b0c7e0eae6eeeba9e4e8ea&quot;&gt;[email&amp;#160;protected]&lt;/a&gt;&lt;script data-cfhash='f9e31' type=&quot;text/javascript&quot;&gt;\n/* &lt;![CDATA[ */!function(){try{var t=&quot;currentScript&quot;in document?document.currentScript:function(){for(var t=document.getElementsByTagName(&quot;script&quot;),e=t.length;e--;)if(t[e].getAttribute(&quot;data-cfhash&quot;))return t[e]}();if(t&amp;&amp;t.previousSibling){var e,r,n,i,c=t.previousSibling,a=c.getAttribute(&quot;data-cfemail&quot;);if(a){for(e=&quot;&quot;,r=parseInt(a.substr(0,2),16),n=2;a.length-n;n+=2)i=parseInt(a.substr(n,2),16)^r,e+=String.fromCharCode(i);e=document.createTextNode(e),c.parentNode.replaceChild(e,c)}t.parentNode.removeChild(t);}}catch(u){}}()/* ]]&gt; */&lt;/script&gt;\n..............................................................................\n\n\nRIPPED BY DRSEEDER\n\nGeneral\nComplete name                    : F:\\COMPLETE\\Evil.Things.2010.DVDRip.XviD.AC3-playXDPAK TEAMm.avi\nFormat                           : AVI\nFormat/Info                      : Audio Video Interleave\nFile size                        : 538 MiB\nDuration                         : 1h 26mn\nOverall bit rate                 : 873 Kbps\n\nVideo\nID                               : 0\nFormat                           : AVC\nFormat/Info                      : Advanced Video Codec\nFormat profile                   : &lt;a class=&quot;__cf_email__&quot; href=&quot;/cdn-cgi/l/email-protection&quot; data-cfemail=&quot;6d25040a052d2158435c&quot;&gt;[email&amp;#160;protected]&lt;/a&gt;&lt;script data-cfhash='f9e31' type=&quot;text/javascript&quot;&gt;\n/* &lt;![CDATA[ */!function(){try{var t=&quot;currentScript&quot;in document?document.currentScript:function(){for(var t=document.getElementsByTagName(&quot;script&quot;),e=t.length;e--;)if(t[e].getAttribute(&quot;data-cfhash&quot;))return t[e]}();if(t&amp;&amp;t.previousSibling){var e,r,n,i,c=t.previousSibling,a=c.getAttribute(&quot;data-cfemail&quot;);if(a){for(e=&quot;&quot;,r=parseInt(a.substr(0,2),16),n=2;a.length-n;n+=2)i=parseInt(a.substr(n,2),16)^r,e+=String.fromCharCode(i);e=document.createTextNode(e),c.parentNode.replaceChild(e,c)}t.parentNode.removeChild(t);}}catch(u){}}()/* ]]&gt; */&lt;/script&gt;\nFormat settings, CABAC           : Yes\nFormat settings, ReFrames        : 1 frame\nCodec ID                         : H264\nDuration                         : 1h 26mn\nBit rate                         : 767 Kbps\nWidth                            : 720 pixels\nHeight                           : 400 pixels\nDisplay aspect ratio             : 16:9\nFrame rate                       : 23.976 fps\nColor space                      : YUV\nChroma subsampling               : 4:2:0\nBit depth                        : 8 bits\nScan type                        : Progressive\nBits/(Pixel*Frame)               : 0.111\nStream size                      : 473 MiB (88%)\n\nAudio\nID                               : 1\nFormat                           : MPEG Audio\nFormat version                   : Version 1\nFormat profile                   : Layer 3\nCodec ID                         : 55\nCodec ID/Hint                    : MP3\nDuration                         : 1h 26mn\nBit rate mode                    : Constant\nBit rate                         : 96.0 Kbps\nChannel(s)                       : 2 channels\nSampling rate                    : 44.1 KHz\nCompression mode                 : Lossy\nStream size                      : 59.2 MiB (11%)\nAlignment                        : Split accross interleaves\nInterleave, duration             : 42 ms (1.00 video frame)\nWriting library                  : LAMELAME_MAJOR_VERSI\n\n","torrent":{"xt":"urn:btih:e05461f7efe744cab42755f0b6e5d6be8c10ffcf","amp;dn":"Evil.Things.2010.DVDRip.XviD.AC3-playXDPAK+TEAMm.avi","amp;tr":["udp%3A%2F%2Ftracker.openbittorrent.com%3A80","udp%3A%2F%2Fopen.demonii.com%3A1337","udp%3A%2F%2Ftracker.coppersurfer.tk%3A6969","udp%3A%2F%2Fexodus.desync.com%3A6969"],"infoHash":"e05461f7efe744cab42755f0b6e5d6be8c10ffcf","infoHashBuffer":{"type":"Buffer","data":[224,84,97,247,239,231,68,202,180,39,85,240,182,229,214,190,140,16,255,207]},"announce":[],"urlList":[]}}